<svg width="25" height="20" viewBox="0 0 25 20" fill="none" xmlns="http://www.w3.org/2000/svg">
<path fill-rule="evenodd" clip-rule="evenodd" d="M24.2147 2.25436C23.3306 2.64532 22.392 2.9008 21.431 3.01209C22.4417 2.40947 23.1994 1.46411 23.5648 0.350032C22.6122 0.911137 21.5708 1.30754 20.4849 1.52237C19.8197 0.817754 18.957 0.328053 18.0086 0.116735C17.0602 -0.0945837 16.0698 -0.0177751 15.1658 0.337205C14.2618 0.692184 13.4859 1.30897 12.9386 2.10761C12.3914 2.90626 12.098 3.84994 12.0965 4.81634C12.0967 5.18576 12.1382 5.55402 12.2201 5.91434C10.292 5.81794 8.40592 5.31931 6.68429 4.45082C4.96266 3.58234 3.44404 2.36343 2.22709 0.873294C1.79559 1.60933 1.56834 2.44607 1.56856 3.29803C1.56915 4.0902 1.76629 4.86999 2.14251 5.56827C2.51873 6.26656 3.0624 6.86176 3.72533 7.30112C2.95541 7.27495 2.20261 7.06822 1.5283 6.6978V6.76071C1.52483 7.87655 1.91077 8.95905 2.62029 9.82358C3.32982 10.6881 4.31899 11.2811 5.41911 11.5015C5.00193 11.6141 4.5717 11.6718 4.13943 11.6731C3.83253 11.6712 3.52645 11.6415 3.22496 11.5844C3.53546 12.5419 4.13874 13.3791 4.95066 13.9793C5.76258 14.5795 6.74264 14.9128 7.75418 14.9327C5.71837 16.5192 3.13328 17.2389 0.564941 16.9343C2.78269 18.3526 5.36463 19.1051 8.00149 19.1017C16.9161 19.1017 21.8048 11.7531 21.8048 5.37678C21.8048 5.16519 21.8048 4.95931 21.7904 4.75058C22.7407 4.07182 23.56 3.22814 24.2089 2.26008L24.2147 2.25436Z" fill="white"/>
</svg>
