<svg width="97" height="90" viewBox="0 0 97 90" fill="none" xmlns="http://www.w3.org/2000/svg">
<path d="M40.7787 38.1868C38.2946 38.1868 36.0554 36.804 34.9401 34.5795C33.3226 31.3485 34.6185 27.3981 37.8342 25.7694C38.7448 25.3107 39.7491 25.0706 40.7679 25.068C41.9791 25.0645 43.1673 25.3999 44.1991 26.0367C45.2308 26.6735 46.0652 27.5863 46.6086 28.6728C48.2309 31.9041 46.9302 35.8568 43.7146 37.4811C42.8043 37.9434 41.7988 38.1851 40.7787 38.1868ZM33.1135 51.5943C32.9855 51.5943 32.8622 51.59 32.7341 51.5856C29.1438 51.3754 26.3821 48.2703 26.5873 44.6608C26.7899 41.0647 29.8603 38.2717 33.4795 38.4841C37.0741 38.6853 39.8315 41.7946 39.6289 45.4042C39.4306 48.8787 36.565 51.5943 33.1135 51.5943ZM40.8278 64.9615C39.5565 64.9623 38.3128 64.5893 37.2505 63.8884C36.5319 63.4179 35.9134 62.809 35.4307 62.0971C34.948 61.3851 34.6107 60.5842 34.4383 59.7406C34.0809 58.028 34.4137 56.2748 35.3682 54.8079C35.9627 53.897 36.774 53.149 37.7287 52.6316C38.6834 52.1142 39.7515 51.8436 40.8365 51.8444C42.1082 51.8444 43.349 52.2187 44.4138 52.9201C45.1336 53.39 45.7531 53.9989 46.2363 54.7112C46.7195 55.4236 47.0568 56.2252 47.2286 57.0696C47.5877 58.7826 47.2544 60.5329 46.2961 62.0006C45.7025 62.9123 44.8914 63.6607 43.9365 64.1778C42.9815 64.6949 41.9129 64.9643 40.8278 64.9615ZM56.2319 64.9304C55.0213 64.9335 53.8339 64.5975 52.8032 63.9602C51.7725 63.3229 50.9394 62.4096 50.3977 61.323C49.6109 59.761 49.4811 57.9835 50.0274 56.3172C50.5719 54.653 51.7359 53.3052 53.2918 52.5151C54.2019 52.0528 55.2076 51.8117 56.2276 51.8111C57.439 51.8071 58.6274 52.143 59.6587 52.7808C60.6899 53.4187 61.5231 54.3332 62.064 55.421C63.682 58.6498 62.3856 62.6003 59.17 64.229C58.2583 64.6888 57.2523 64.929 56.2319 64.9304ZM63.9066 51.5281C63.7764 51.5281 63.6531 51.5195 63.5298 51.5151C59.9305 51.3113 57.1731 48.2015 57.3778 44.5963C57.5809 40.9981 60.6534 38.2055 64.2726 38.4175C65.1293 38.4637 65.9682 38.6803 66.7408 39.0545C67.5134 39.4287 68.2043 39.9531 68.7734 40.5974C69.3465 41.239 69.787 41.9884 70.0692 42.8022C70.3513 43.616 70.4697 44.4779 70.4173 45.338C70.2233 48.8103 67.3607 51.5281 63.9066 51.5281ZM56.166 38.1566C54.8985 38.1566 53.6599 37.787 52.5908 37.0809C49.5756 35.0957 48.7362 31.0236 50.7111 27.9986C51.3052 27.0881 52.1161 26.3404 53.0704 25.8234C54.0247 25.3064 55.0923 25.0362 56.1768 25.0373C57.4485 25.0373 58.6876 25.4094 59.752 26.1104C62.765 28.0912 63.6091 32.1655 61.6342 35.1909C60.4198 37.0432 58.3789 38.1566 56.166 38.1566ZM34.2387 13.8071C35.0522 15.4228 34.4021 17.3968 32.7953 18.2068C32.413 18.4006 31.9963 18.517 31.5691 18.5492C31.1419 18.5813 30.7126 18.5287 30.3056 18.3943C29.8987 18.2599 29.5222 18.0463 29.1975 17.7658C28.8728 17.4853 28.6064 17.1433 28.4135 16.7594C28.0233 15.9832 27.9562 15.0832 28.2269 14.2574C28.4976 13.4315 29.0841 12.7474 29.8573 12.3554C31.4641 11.5454 33.4299 12.1915 34.2387 13.8071ZM14.4683 41.8024C16.2691 41.9046 17.6443 43.4536 17.543 45.2597C17.4417 47.0679 15.8966 48.4486 14.0984 48.3491C12.2994 48.2431 10.9263 46.6962 11.0254 44.8875C11.1267 43.0841 12.6697 41.7012 14.4683 41.8024ZM28.7287 72.9941C28.9632 72.6341 29.2662 72.3242 29.6202 72.082C29.9743 71.8397 30.3725 71.67 30.792 71.5824C31.2115 71.4948 31.6441 71.4911 32.065 71.5716C32.4859 71.652 32.8869 71.815 33.245 72.0512C34.7526 73.0408 35.1734 75.0723 34.184 76.5884C33.1967 78.102 31.1731 78.5226 29.6655 77.5334C28.9421 77.0558 28.4371 76.3095 28.2615 75.4585C28.0858 74.6075 28.2539 73.7213 28.7287 72.9945M62.7642 76.1899C61.9507 74.5764 62.6008 72.6072 64.2054 71.7925C65.8212 70.9781 67.7806 71.6289 68.5898 73.2398C69.4029 74.8555 68.7523 76.8295 67.1434 77.6395C66.7612 77.8336 66.3445 77.9502 65.9173 77.9824C65.4901 78.0147 65.0608 77.9619 64.6539 77.8273C64.2471 77.6926 63.8707 77.4786 63.5464 77.1977C63.2221 76.9167 62.9563 76.5742 62.7642 76.1899ZM82.5324 48.1946C80.7295 48.0925 79.3586 46.543 79.4599 44.7374C79.4834 44.3076 79.5912 43.8867 79.777 43.4987C79.9629 43.1108 80.2232 42.7635 80.543 42.4767C80.8628 42.1899 81.2359 41.9693 81.6408 41.8274C82.0457 41.6856 82.4746 41.6253 82.9027 41.6501C84.7014 41.7496 86.0809 43.2987 85.9796 45.1091C85.8804 46.9173 84.331 48.2959 82.5324 48.1942M68.2764 17.003C68.0428 17.3659 67.74 17.6787 67.3855 17.9237C67.0309 18.1686 66.6316 18.3406 66.2105 18.43C65.7894 18.5194 65.3548 18.5242 64.9319 18.4443C64.5089 18.3644 64.1058 18.2013 63.7459 17.9644C63.386 17.7274 63.0764 17.4214 62.8348 17.0639C62.5933 16.7063 62.4246 16.3044 62.3384 15.8811C62.2523 15.4579 62.2505 15.0217 62.333 14.5977C62.4155 14.1738 62.5808 13.7704 62.8193 13.4108C63.0538 13.0509 63.3567 12.7408 63.7106 12.4985C64.0646 12.2562 64.4626 12.0863 64.8821 11.9985C65.3015 11.9107 65.7341 11.9068 66.155 11.987C66.576 12.0672 66.977 12.2299 67.3353 12.4658C68.8407 13.4597 69.2641 15.489 68.2764 17.003ZM27.1025 3.75565C27.3548 4.2578 27.398 4.83994 27.2227 5.37408C27.0475 5.90823 26.668 6.35065 26.1678 6.60408C25.9201 6.72955 25.6501 6.80476 25.3734 6.82538C25.0967 6.84601 24.8186 6.81165 24.5551 6.72427C24.2916 6.6369 24.0479 6.49822 23.8378 6.31618C23.6278 6.13414 23.4556 5.91232 23.3311 5.6634C23.0793 5.16151 23.0363 4.57982 23.2115 4.04613C23.3868 3.51244 23.766 3.0704 24.2658 2.81714C24.766 2.56463 25.3457 2.52163 25.8775 2.69758C26.4093 2.87353 26.8499 3.25406 27.1025 3.75565ZM2.22943 42.985C2.50629 43.0005 2.77739 43.0707 3.02721 43.1915C3.27703 43.3122 3.50067 43.4813 3.68534 43.6889C3.87001 43.8965 4.01209 44.1386 4.10344 44.4014C4.19479 44.6642 4.23362 44.9424 4.21772 45.2203C4.14917 46.3886 3.15287 47.2873 1.99145 47.2141C1.71465 47.1992 1.44352 47.1295 1.19363 47.009C0.943739 46.8886 0.720016 46.7198 0.535307 46.5123C0.350597 46.3049 0.20854 46.0628 0.117292 45.8001C0.0260446 45.5374 -0.0125954 45.2592 0.00359133 44.9814C0.0354028 44.4206 0.287667 43.8954 0.704994 43.521C1.12232 43.1467 1.67059 42.9539 2.22943 42.985ZM23.629 84.2281C23.781 83.9948 23.9775 83.7939 24.207 83.637C24.4366 83.48 24.6948 83.3702 24.9667 83.3136C25.2387 83.2571 25.5191 83.2551 25.7919 83.3076C26.0647 83.3601 26.3244 83.4662 26.5563 83.6197C26.7881 83.7727 26.9876 83.9701 27.1434 84.2005C27.2992 84.4309 27.4082 84.6898 27.4642 84.9626C27.5203 85.2353 27.5223 85.5164 27.47 85.7899C27.4178 86.0634 27.3124 86.3238 27.1598 86.5564C26.8527 87.0262 26.3724 87.3544 25.8243 87.469C25.2763 87.5835 24.7053 87.475 24.2369 87.1674C23.7683 86.8582 23.4411 86.375 23.3272 85.8239C23.2132 85.2729 23.3218 84.6989 23.629 84.2281ZM69.9012 86.2466C69.3766 85.1952 69.7956 83.9209 70.8381 83.396C71.0853 83.2704 71.3549 83.195 71.6312 83.1742C71.9076 83.1534 72.1853 83.1875 72.4485 83.2747C72.7117 83.3619 72.9551 83.5005 73.1648 83.6823C73.3745 83.8642 73.5463 84.0858 73.6705 84.3345C73.7957 84.5828 73.871 84.8534 73.8919 85.1309C73.9128 85.4084 73.879 85.6872 73.7924 85.9516C73.7058 86.2159 73.5681 86.4605 73.3871 86.6714C73.2062 86.8822 72.9856 87.0552 72.738 87.1804C72.2384 87.4338 71.659 87.4778 71.1271 87.3027C70.5951 87.1276 70.1543 86.7478 69.9012 86.2466ZM94.7721 47.0173C94.2124 46.985 93.6882 46.731 93.315 46.311C92.9417 45.891 92.7499 45.3395 92.7817 44.7776C92.7971 44.4992 92.8672 44.2265 92.9879 43.9753C93.1085 43.7241 93.2775 43.4993 93.485 43.3139C93.6925 43.1284 93.9345 42.9859 94.197 42.8946C94.4596 42.8032 94.7375 42.7648 95.0149 42.7816C96.1763 42.8435 97.0687 43.8504 96.9958 45.0187C96.9342 46.1852 95.9336 47.0791 94.7721 47.0173ZM73.3773 5.76941C72.7337 6.7499 71.4244 7.02422 70.4522 6.38037C69.9842 6.07136 69.6573 5.58867 69.5434 5.03815C69.4294 4.48763 69.5377 3.91423 69.8443 3.44368C69.9962 3.21086 70.1923 3.01043 70.4215 2.85386C70.6507 2.6973 70.9084 2.5877 71.1799 2.53133C71.4513 2.47497 71.7312 2.47296 72.0035 2.52543C72.2758 2.57789 72.535 2.68378 72.7664 2.83704C73.2345 3.14492 73.5617 3.62662 73.6762 4.1764C73.7907 4.72618 73.6832 5.29911 73.3773 5.76941ZM27.7418 28.591C29.5137 29.7549 30.0095 32.1451 28.8459 33.9248C28.5701 34.3487 28.2135 34.7138 27.7968 34.9991C27.38 35.2843 26.9112 35.4842 26.4173 35.5872C25.9234 35.6902 25.414 35.6943 24.9185 35.5993C24.423 35.5042 23.9511 35.3119 23.5299 35.0334C21.7554 33.8694 21.2618 31.481 22.4253 29.6974C23.5894 27.9203 25.9695 27.4201 27.7418 28.591ZM23.9661 54.8469C25.8596 53.8867 28.1695 54.6548 29.1236 56.5534C30.0759 58.4547 29.3154 60.7739 27.422 61.7323C25.5311 62.6903 23.2186 61.9227 22.2667 60.0258C21.3122 58.125 22.0727 55.8053 23.9661 54.8473M44.4483 71.2572C44.5699 69.1327 46.3862 67.5084 48.4995 67.6256C50.6201 67.745 52.2377 69.571 52.1165 71.6929C52.0884 72.1987 51.9612 72.6939 51.7422 73.1502C51.5232 73.6066 51.2167 74.0151 50.8402 74.3525C50.4637 74.6898 50.0247 74.9494 49.5482 75.1162C49.0717 75.2831 48.5671 75.354 48.0632 75.325C45.9473 75.2034 44.3298 73.3822 44.4488 71.2577M69.2645 61.4139C67.4926 60.2426 66.9964 57.855 68.1557 56.0731C69.3197 54.296 71.6994 53.8006 73.4696 54.9667C75.244 56.1307 75.7376 58.5209 74.5762 60.3001C73.4144 62.0841 71.0342 62.5774 69.2645 61.4134M73.0376 35.1532C71.1446 36.1112 68.8342 35.3479 67.8823 33.4467C66.9279 31.5476 67.6862 29.2283 69.5818 28.2725C71.4774 27.3119 73.7851 28.0778 74.7435 29.9786C75.6937 31.8773 74.931 34.197 73.0376 35.1528M52.2821 18.7429C52.1605 20.8652 50.3447 22.4943 48.224 22.3723C47.7206 22.3434 47.2277 22.2153 46.7736 21.9952C46.3195 21.7752 45.913 21.4675 45.5774 21.0898C45.2418 20.712 44.9836 20.2717 44.8175 19.7938C44.6514 19.3159 44.5808 18.8098 44.6096 18.3046C44.7307 16.1779 46.5427 14.5531 48.6586 14.673C49.6766 14.731 50.63 15.1922 51.3094 15.9554C51.9888 16.7185 52.3387 17.7211 52.2821 18.7429ZM13.444 21.6752C14.6869 22.4896 15.0305 24.165 14.2174 25.4107C14.0242 25.7072 13.7746 25.9626 13.4829 26.1621C13.1911 26.3616 12.863 26.5013 12.5174 26.5733C12.1717 26.6453 11.8153 26.648 11.4686 26.5814C11.1219 26.5148 10.7916 26.3802 10.4969 26.1852C9.25614 25.3687 8.9078 23.6933 9.72347 22.4498C10.5387 21.2058 12.2028 20.854 13.444 21.6752ZM10.8543 63.8214C11.1694 63.6613 11.5129 63.5653 11.865 63.5388C12.2172 63.5123 12.5711 63.5557 12.9065 63.6668C13.2419 63.7778 13.5522 63.9542 13.8195 64.1858C14.0868 64.4174 14.306 64.6997 14.4644 65.0165C14.785 65.6559 14.8394 66.397 14.6158 67.0768C14.3922 67.7565 13.9089 68.3194 13.272 68.6416C11.9471 69.3097 10.3318 68.7787 9.66354 67.4486C8.99833 66.1185 9.52947 64.4921 10.8543 63.8214ZM45.6365 87.1475C45.6558 86.7937 45.7446 86.4472 45.8976 86.1278C46.0507 85.8085 46.265 85.5226 46.5283 85.2866C46.7917 85.0506 47.0988 84.869 47.4322 84.7523C47.7656 84.6357 48.1186 84.5862 48.471 84.6067C48.8235 84.6266 49.1685 84.7161 49.4865 84.87C49.8044 85.0238 50.0891 85.2391 50.3241 85.5034C50.5591 85.7678 50.7399 86.076 50.8562 86.4105C50.9725 86.745 51.0219 87.0993 51.0017 87.453C50.9825 87.807 50.8939 88.1537 50.7409 88.4732C50.588 88.7928 50.3736 89.0789 50.1102 89.3151C49.8468 89.5513 49.5396 89.733 49.206 89.8498C48.8725 89.9665 48.5193 90.016 48.1667 89.9955C47.814 89.9757 47.4687 89.8864 47.1506 89.7325C46.8324 89.5786 46.5476 89.3631 46.3126 89.0986C46.0775 88.834 45.8968 88.5255 45.7808 88.1907C45.6648 87.8558 45.6157 87.5013 45.6365 87.1475ZM83.5555 68.3253C82.96 67.9322 82.5441 67.3182 82.3991 66.6178C82.2542 65.9175 82.3919 65.188 82.782 64.5894C83.5973 63.3454 85.2635 62.9936 86.5047 63.8123C87.0997 64.2057 87.5152 64.8197 87.6601 65.5199C87.8051 66.2201 87.6677 66.9494 87.2781 67.5482C87.0846 67.8446 86.8348 68.0999 86.5429 68.2995C86.2511 68.499 85.9229 68.6388 85.5772 68.7109C85.2314 68.7831 84.8749 68.7861 84.528 68.7198C84.1811 68.6536 83.8506 68.5194 83.5555 68.3249M86.1499 26.1809C85.5122 26.502 84.7737 26.556 84.0963 26.3312C83.419 26.1063 82.8583 25.6209 82.5372 24.9815C82.3784 24.6652 82.2832 24.3206 82.2572 23.9674C82.2312 23.6141 82.2748 23.2593 82.3856 22.923C82.4963 22.5867 82.672 22.2756 82.9027 22.0075C83.1333 21.7395 83.4143 21.5197 83.7296 21.3607C84.0446 21.2011 84.3878 21.1054 84.7396 21.079C85.0914 21.0526 85.445 21.0961 85.7801 21.2069C86.1152 21.3176 86.4252 21.4936 86.6925 21.7247C86.9599 21.9558 87.1792 22.2374 87.338 22.5536C88.0054 23.8863 87.4721 25.5102 86.1499 26.1809ZM51.0939 2.85262C51.0536 3.56722 50.732 4.23645 50.2 4.7131C49.668 5.18975 48.9692 5.43477 48.2572 5.39426C47.5452 5.35375 46.8784 5.03103 46.4035 4.49709C45.9286 3.96315 45.6845 3.26173 45.7249 2.54714C45.8111 1.05564 47.0781 -0.0819111 48.5616 0.00462766C48.9142 0.0246281 49.2595 0.114173 49.5776 0.268146C49.8957 0.422119 50.1805 0.637502 50.4157 0.901987C50.6509 1.16647 50.8318 1.47487 50.9482 1.80957C51.0646 2.14427 51.1141 2.49871 51.0939 2.85262Z" fill="white"/>
</svg>
