<svg width="20" height="19" viewBox="0 0 20 19" fill="none" xmlns="http://www.w3.org/2000/svg">
<path fill-rule="evenodd" clip-rule="evenodd" d="M19.0647 12.571H15.354C13.6151 12.571 12.1998 11.1565 12.1989 9.41853C12.1989 7.6787 13.6142 6.26337 15.354 6.26245H19.0647C19.4442 6.26245 19.7522 6.57045 19.7522 6.94995C19.7522 7.32945 19.4442 7.63745 19.0647 7.63745H15.354C14.3723 7.63837 13.5739 8.43678 13.5739 9.41762C13.5739 10.3975 14.3732 11.196 15.354 11.196H19.0647C19.4442 11.196 19.7522 11.504 19.7522 11.8835C19.7522 12.263 19.4442 12.571 19.0647 12.571" fill="white"/>
<path fill-rule="evenodd" clip-rule="evenodd" d="M15.7734 10.0483H15.4874C15.1079 10.0483 14.7999 9.74034 14.7999 9.36084C14.7999 8.98134 15.1079 8.67334 15.4874 8.67334H15.7734C16.1529 8.67334 16.4609 8.98134 16.4609 9.36084C16.4609 9.74034 16.1529 10.0483 15.7734 10.0483" fill="white"/>
<mask id="mask0_501_1180" style="mask-type:luminance" maskUnits="userSpaceOnUse" x="0" y="0" width="20" height="19">
<path fill-rule="evenodd" clip-rule="evenodd" d="M0.833374 0.75H19.7521V18.3252H0.833374V0.75Z" fill="white"/>
</mask>
<g mask="url(#mask0_501_1180)">
<path fill-rule="evenodd" clip-rule="evenodd" d="M6.33117 2.125C4.05784 2.125 2.20801 3.97483 2.20801 6.24817V12.8271C2.20801 15.1004 4.05784 16.9503 6.33117 16.9503H14.2548C16.5282 16.9503 18.3771 15.1004 18.3771 12.8271V6.24817C18.3771 3.97483 16.5282 2.125 14.2548 2.125H6.33117ZM14.2548 18.3253H6.33118C3.29976 18.3253 0.833008 15.8585 0.833008 12.8271V6.24817C0.833008 3.21583 3.29976 0.75 6.33118 0.75H14.2548C17.2863 0.75 19.7521 3.21583 19.7521 6.24817V12.8271C19.7521 15.8585 17.2863 18.3253 14.2548 18.3253V18.3253Z" fill="white"/>
</g>
<path fill-rule="evenodd" clip-rule="evenodd" d="M10.6276 6.28491H5.67847C5.29897 6.28491 4.99097 5.97691 4.99097 5.59741C4.99097 5.21791 5.29897 4.90991 5.67847 4.90991H10.6276C11.0071 4.90991 11.3151 5.21791 11.3151 5.59741C11.3151 5.97691 11.0071 6.28491 10.6276 6.28491" fill="white"/>
</svg>
