<svg width="24" height="24" viewBox="0 0 24 24" fill="none" xmlns="http://www.w3.org/2000/svg">
<path fill-rule="evenodd" clip-rule="evenodd" d="M20.2482 3.43709C19.1994 2.34357 17.9511 1.47663 16.5759 0.886601C15.2007 0.296576 13.7259 -0.00477241 12.2372 5.71435e-05C6.00073 5.71435e-05 0.919352 5.25681 0.919352 11.7193C0.917574 13.7755 1.4392 15.796 2.43171 17.5772L0.824829 23.6497L6.82731 22.0189C8.48721 22.9555 10.3474 23.4466 12.2379 23.4473H12.2425C18.4829 23.4473 23.5649 18.1905 23.5649 11.7281C23.5683 10.188 23.2768 8.66251 22.7071 7.23977C22.1375 5.81704 21.3011 4.52526 20.2462 3.43911L20.2482 3.43709ZM12.2405 21.4744C10.5541 21.4747 8.89871 21.0053 7.4479 20.1155L7.10306 19.903L3.5412 20.8672L4.49229 17.2729L4.26935 16.9039C3.32372 15.3528 2.82383 13.5554 2.82805 11.7213C2.82805 6.34784 7.05025 1.97497 12.2457 1.97497C13.482 1.97514 14.7061 2.22749 15.8482 2.71759C16.9902 3.20769 18.0277 3.92592 18.9014 4.83125C19.7751 5.73658 20.4679 6.81124 20.9401 7.99383C21.4124 9.17641 21.6548 10.4437 21.6536 11.7233C21.649 17.0988 17.4275 21.4704 12.2398 21.4704L12.2405 21.4744ZM17.4001 14.1739C17.1185 14.0255 15.7261 13.3191 15.4673 13.2212C15.2085 13.1234 15.0208 13.0735 14.8285 13.3697C14.6362 13.6659 14.097 14.3217 13.9315 14.5167C13.7659 14.7117 13.6016 14.7387 13.3207 14.5902C13.0397 14.4418 12.1245 14.1334 11.0443 13.1355C10.2047 12.3596 9.6356 11.3988 9.47002 11.1114C9.30445 10.8239 9.45112 10.6586 9.59519 10.5156C9.72556 10.3854 9.87679 10.1742 10.0196 10.0028C10.1623 9.83142 10.2073 9.71132 10.3012 9.51295C10.395 9.31459 10.3494 9.14725 10.2784 9.00017C10.2073 8.85308 9.63951 7.4112 9.40875 6.82419C9.18124 6.25 8.94461 6.33029 8.77056 6.32017C8.59651 6.31005 8.41724 6.3114 8.23015 6.3114C8.08696 6.31538 7.94609 6.34984 7.81633 6.41264C7.68656 6.47544 7.57069 6.56524 7.47593 6.67642C7.21518 6.96791 6.48508 7.67906 6.48508 9.12027C6.48508 10.5615 7.4981 11.9541 7.6402 12.1504C7.78231 12.3468 9.6356 15.3054 12.4732 16.5726C13.1473 16.8721 13.674 17.0523 14.0847 17.192C14.6618 17.3719 15.2713 17.4114 15.8656 17.3073C16.4099 17.2243 17.5396 16.5996 17.7762 15.9161C18.0129 15.2326 18.0129 14.6456 17.9425 14.5248C17.8721 14.404 17.6876 14.3224 17.4021 14.1726L17.4001 14.1739Z" fill="white"/>
</svg>
