<svg width="21" height="15" viewBox="0 0 21 15" fill="none" xmlns="http://www.w3.org/2000/svg">
<path d="M20.2339 4.95888C20.2789 3.65692 19.9942 2.3647 19.4062 1.20221C19.0072 0.725211 18.4536 0.403313 17.8417 0.292605C15.3107 0.0629524 12.7693 -0.0311745 10.2283 0.0106272C7.69652 -0.0330718 5.16423 0.0580177 2.64217 0.283509C2.14354 0.374211 1.6821 0.608094 1.31414 0.956616C0.4955 1.71159 0.404539 3.00323 0.313579 4.09475C0.181606 6.05728 0.181606 8.02646 0.313579 9.98899C0.339894 10.6033 0.431367 11.2132 0.58646 11.8082C0.696136 12.2676 0.918032 12.6926 1.23228 13.0453C1.60273 13.4122 2.07492 13.6594 2.58759 13.7548C4.54862 13.9968 6.52456 14.0971 8.50002 14.0549C11.6836 14.1004 14.4761 14.0549 17.778 13.8002C18.3032 13.7108 18.7887 13.4633 19.1697 13.0907C19.4243 12.836 19.6145 12.5241 19.7245 12.1811C20.0498 11.183 20.2096 10.1383 20.1975 9.08848C20.2339 8.5791 20.2339 5.50464 20.2339 4.95888ZM8.17256 9.63424V4.00379L13.5574 6.83266C12.0475 7.6695 10.0554 8.61549 8.17256 9.63424Z" fill="white"/>
</svg>
